<?xml version="1.0" standalone="no"?>
<!DOCTYPE svg PUBLIC "-//W3C//DTD SVG 20010904//EN"
 "http://www.w3.org/TR/2001/REC-SVG-20010904/DTD/svg10.dtd">
<svg version="1.0" xmlns="http://www.w3.org/2000/svg"
 width="200.000000pt" height="200.000000pt" viewBox="0 0 200.000000 200.000000"
 preserveAspectRatio="xMidYMid meet">
<metadata>
Created by potrace 1.14, written by Peter Selinger 2001-2017
</metadata>
<g transform="translate(0.000000,200.000000) scale(0.100000,-0.100000)"
fill="#000000" stroke="none">
<path d="M647 1443 c-4 -3 -7 -21 -7 -39 0 -19 -5 -32 -12 -31 -39 1 -58 -5
-58 -17 0 -9 -12 -16 -32 -18 l-33 -3 -3 -346 -2 -346 127 -6 c136 -7 267 -33
333 -67 39 -20 40 -20 78 -1 83 42 243 71 389 71 l73 0 -2 348 -3 347 -32 3
c-21 2 -33 9 -33 18 0 12 -19 18 -57 17 -8 -1 -13 12 -13 33 0 43 -15 50 -82
34 -90 -21 -170 -65 -226 -124 l-52 -55 -51 55 c-55 57 -123 96 -210 119 -60
16 -82 18 -92 8z m157 -77 c61 -27 109 -66 147 -120 l29 -39 0 -270 0 -270
-45 42 c-53 49 -150 97 -212 107 l-43 6 0 290 0 290 36 -7 c20 -3 60 -17 88
-29z m516 -255 l0 -289 -43 -6 c-62 -10 -159 -58 -212 -107 l-45 -42 0 270 c0
294 -3 280 64 351 39 42 81 68 148 92 96 35 88 59 88 -269z m-678 -53 l3 -272
62 -13 c71 -14 135 -42 178 -78 l30 -25 -47 20 c-59 26 -191 60 -230 60 l-28
0 0 290 c0 250 2 290 15 290 13 0 15 -39 17 -272z m748 -18 l0 -290 -28 0
c-39 0 -171 -34 -230 -60 l-47 -20 30 25 c43 36 107 64 178 78 l62 13 3 272
c2 233 4 272 17 272 13 0 15 -40 15 -290z m-820 -38 l0 -288 88 -13 c48 -7 96
-17 107 -22 15 -7 12 -8 -14 -4 -18 3 -73 5 -122 5 l-89 0 0 305 c0 264 2 305
15 305 13 0 15 -39 15 -288z m890 -17 l0 -305 -82 0 c-46 0 -101 -3 -123 -5
-79 -10 -2 13 88 26 l87 13 0 288 c0 249 2 288 15 288 13 0 15 -41 15 -305z"/>
</g>
</svg>
